<svg width="730" height="397" viewBox="0 0 730 397" fill="none" xmlns="http://www.w3.org/2000/svg">
<g clip-path="url(#clip0)">
<path d="M318.627 4.63466L259.854 222.768L628.289 332.118L687.062 113.985L318.627 4.63466Z" fill="#3F3D56"/>
<path d="M324.992 16.9607C326.677 16.9607 328.043 15.5269 328.043 13.7581C328.043 11.9894 326.677 10.5556 324.992 10.5556C323.306 10.5556 321.94 11.9894 321.94 13.7581C321.94 15.5269 323.306 16.9607 324.992 16.9607Z" fill="#FF00B8"/>
<path d="M334.388 19.7494C336.073 19.7494 337.439 18.3156 337.439 16.5468C337.439 14.7781 336.073 13.3443 334.388 13.3443C332.702 13.3443 331.336 14.7781 331.336 16.5468C331.336 18.3156 332.702 19.7494 334.388 19.7494Z" fill="#FF00B8"/>
<path d="M343.784 22.5381C345.469 22.5381 346.835 21.1043 346.835 19.3355C346.835 17.5668 345.469 16.1329 343.784 16.1329C342.098 16.1329 340.732 17.5668 340.732 19.3355C340.732 21.1043 342.098 22.5381 343.784 22.5381Z" fill="#FF00B8"/>
<path d="M514.16 143.048C509.228 142.069 504.154 142.195 499.271 143.417C500.693 138.293 501.052 132.909 500.324 127.627C495.296 129.538 490.746 132.62 487.016 136.641C485.845 131.165 483.506 126.039 480.176 121.648C476.92 125.747 474.539 130.531 473.194 135.677C469.644 131.953 465.384 129.057 460.694 127.18C460.694 127.18 458.472 139.041 463.822 148.775C468.584 157.437 477.732 161.491 479.688 162.279L479.734 162.337L479.758 162.307C479.957 162.386 480.068 162.427 480.068 162.427C480.068 162.427 480.11 162.199 480.168 161.792C480.203 161.747 480.239 161.7 480.278 161.649C480.285 161.714 480.292 161.773 480.3 161.831C480.146 162.209 480.068 162.427 480.068 162.427C480.068 162.427 480.183 162.453 480.391 162.495L480.398 162.534L480.466 162.51C482.525 162.914 492.341 164.489 500.72 159.726C510.134 154.375 514.16 143.048 514.16 143.048Z" fill="#FF00B8"/>
<path d="M495.9 112.748C500.282 112.748 503.834 109.02 503.834 104.421C503.834 99.8226 500.282 96.0946 495.9 96.0946C491.519 96.0946 487.967 99.8226 487.967 104.421C487.967 109.02 491.519 112.748 495.9 112.748Z" fill="#FF00B8"/>
<path d="M595.516 212.532L357.093 141.769L355.626 147.213L594.05 217.976L595.516 212.532Z" fill="#FF00B8"/>
<path d="M413.209 187.712L372.102 175.511L360.477 218.655L401.585 230.856L413.209 187.712Z" fill="#FF00B8"/>
<path d="M489.552 210.37L448.444 198.169L436.82 241.313L477.927 253.514L489.552 210.37Z" fill="#FF00B8"/>
<path d="M565.894 233.028L524.787 220.827L513.162 263.972L554.27 276.172L565.894 233.028Z" fill="#FF00B8"/>
<path d="M393.974 237.916L363.438 228.853L362.441 232.551L392.978 241.614L393.974 237.916Z" fill="#FF00B8"/>
<path d="M470.317 260.574L439.78 251.511L438.784 255.209L469.321 264.272L470.317 260.574Z" fill="#FF00B8"/>
<path d="M546.659 283.232L516.122 274.169L515.126 277.867L545.663 286.93L546.659 283.232Z" fill="#FF00B8"/>
<path d="M208.258 307.184C321.051 307.184 412.488 303.636 412.488 299.26C412.488 294.883 321.051 291.335 208.258 291.335C95.4643 291.335 4.02721 294.883 4.02721 299.26C4.02721 303.636 95.4643 307.184 208.258 307.184Z" fill="#D0CDE1"/>
<path d="M571.074 397C658.846 397 730 393.452 730 389.075C730 384.698 658.846 381.15 571.074 381.15C483.302 381.15 412.148 384.698 412.148 389.075C412.148 393.452 483.302 397 571.074 397Z" fill="#D0CDE1"/>
<path d="M493.127 327.563H538.977V347.687H512.302V367.812H538.979V387.935H493.127V327.563ZM548.148 327.563H593.999V345.062H567.322V348.562H593.999V388.811H548.149V370.434H574.826V366.934H548.147V327.563H548.148ZM603.17 327.563H649.021V345.062H622.344V348.562H649.021V388.811H603.17V370.434H629.847V366.934H603.171V327.563H603.17Z" fill="#FF00B8"/>
<path d="M92.3999 235.483H111.314V255.096H128.617V235.483H147.533V294.877H128.618V274.988H111.316V294.877H92.4011V235.483H92.3999ZM172.405 255.179H155.756V235.483H207.982V255.179H191.323V294.877H172.408V255.179H172.405ZM216.271 235.483H235.993L248.125 256.352L260.245 235.483H279.975V294.877H261.138V265.438L248.125 286.556H247.799L234.777 265.438V294.877H216.271V235.483ZM289.388 235.483H308.309V275.245H334.908V294.877H289.387V235.483H289.388Z" fill="#FF00B8"/>
<path d="M58.9924 276.308L57.4405 294.775L69.8598 293.688V277.938L58.9924 276.308Z" fill="#FFB8B8"/>
<path d="M47.608 276.308L49.1606 294.775L36.7413 293.688V277.938L47.608 276.308Z" fill="#FFB8B8"/>
<path d="M80.2093 134.554C80.2093 134.554 84.3492 160.624 84.3492 164.426C84.3492 168.228 82.7968 192.668 80.2093 197.556C77.622 202.444 77.1045 204.617 78.1394 206.789C79.1744 208.962 78.6569 208.418 78.1394 210.048C77.622 211.677 76.587 211.134 78.1394 213.306C78.7734 214.263 79.1132 215.4 79.1132 216.565C79.1132 217.73 78.7734 218.867 78.1394 219.824C77.1045 221.453 80.2093 265.446 76.0695 268.705C71.9297 271.963 70.8947 282.826 70.8947 282.826L57.4402 281.197V269.248C57.4402 269.248 54.3354 260.558 56.4053 255.127C58.4752 249.696 59.5102 220.91 59.5102 220.91C59.5102 220.91 58.9927 218.195 59.5102 216.565C60.0276 214.936 59.5102 213.85 58.4752 213.306C57.4402 212.763 56.9228 210.591 56.9228 210.591L55.3703 170.943L49.1606 210.048C49.1606 210.048 55.3703 263.274 49.1606 270.334V282.826H35.7061L37.776 269.248C37.776 269.248 33.6362 256.756 35.7061 254.04C37.776 251.325 29.4963 207.875 30.5313 206.246C31.5663 204.617 31.0488 204.073 30.5313 202.987C30.0138 201.901 28.4614 200.815 28.9789 199.728C29.4963 198.642 28.9789 196.47 28.9789 196.47C28.9789 196.47 19.1467 145.416 23.8041 140.528C28.4614 135.64 80.2093 134.554 80.2093 134.554Z" fill="#2F2E41"/>
<path d="M60.5451 287.714C60.5451 287.714 61.5801 282.505 69.8597 284.295C69.8597 284.295 71.9297 288.8 71.9297 290.973C71.9297 293.145 73.9996 307.809 73.9996 307.809C73.9996 307.809 82.2793 322.474 71.9297 322.474C61.5801 322.474 57.9577 318.672 57.4402 314.87C56.9227 311.068 57.9577 309.982 55.8878 308.353C53.8179 306.723 52.7829 306.723 53.3004 304.551C53.8179 302.378 54.8528 291.516 54.8528 291.516C54.8528 291.516 55.3703 283.369 58.2165 285.541L61.0626 287.714" fill="#2F2E41"/>
<path d="M46.0557 287.714C46.0557 287.714 45.0207 282.505 36.7411 284.295C36.7411 284.295 34.6711 288.8 34.6711 290.973C34.6711 293.145 32.6012 307.809 32.6012 307.809C32.6012 307.809 24.3215 322.474 34.6711 322.474C45.0207 322.474 48.6431 318.672 49.1606 314.87C49.678 311.068 48.6431 309.982 50.713 308.353C52.7829 306.723 53.8179 306.723 53.3004 304.551C52.7829 302.378 51.7479 291.516 51.7479 291.516C51.7479 291.516 51.2305 283.369 48.3843 285.541L45.5382 287.714" fill="#2F2E41"/>
<path d="M61.0626 34.62C68.7791 34.62 75.0345 28.0546 75.0345 19.9557C75.0345 11.8569 68.7791 5.2915 61.0626 5.2915C53.3461 5.2915 47.0906 11.8569 47.0906 19.9557C47.0906 28.0546 53.3461 34.62 61.0626 34.62Z" fill="#FFB8B8"/>
<path d="M49.678 22.1282C49.678 22.1282 43.9857 45.4824 42.9508 46.0255C41.9158 46.5686 66.7549 48.7411 66.7549 48.7411C66.7549 48.7411 60.5451 28.6457 66.7549 25.387L49.678 22.1282Z" fill="#FFB8B8"/>
<path d="M46.0427 36.3601L46.0421 36.3571L28.9789 48.7411L32.0837 145.96C32.0837 145.96 54.8528 143.244 60.0276 143.787C65.2024 144.33 81.7618 138.899 81.7618 138.899L74.5085 47.5469C74.3668 45.7619 73.6213 44.089 72.4069 42.8305C71.1924 41.572 69.5891 40.811 67.8867 40.685L64.7788 40.455C64.7788 40.455 61.6742 48.5228 52.3331 44.3606C50.7582 43.6415 49.3674 42.542 48.2743 41.1517C47.1811 39.7613 46.4165 38.1195 46.0427 36.3601Z" fill="#D0CDE1"/>
<path d="M46.4554 35.4734L25.3565 46.0255L21.2167 108.484C21.2167 108.484 12.937 145.96 19.6642 156.822C26.3915 167.684 37.776 168.771 37.776 168.771C37.776 168.771 52.7829 106.312 48.6431 85.1302C44.5032 63.9485 46.4554 35.4734 46.4554 35.4734Z" fill="#575A89"/>
<path d="M6.72724 129.666V137.813C6.72724 137.813 3.62237 155.736 13.4545 155.193C23.2866 154.649 18.6293 135.64 18.6293 135.64L15.5244 129.666H6.72724Z" fill="#FFB8B8"/>
<path d="M97.8036 145.96L96.7687 155.193C96.7687 155.193 101.943 173.659 92.1114 174.202C82.2792 174.745 89.4161 155.306 89.4161 155.306L92.6288 144.873L97.8036 145.96Z" fill="#FFB8B8"/>
<path d="M64.4674 38.5568C73.8964 40.9944 82.6339 45.7615 89.952 52.461L90.0414 52.5429L82.7967 92.7338L81.7618 107.398C81.7618 107.398 100.909 179.09 78.6569 168.771C78.6569 168.771 59.5101 106.312 62.0975 77.5265C64.6849 48.7411 64.4674 38.5568 64.4674 38.5568Z" fill="#575A89"/>
<path d="M83.3142 51.9998C83.8317 51.4567 90.0414 52.7546 90.0414 52.7546C90.0414 52.7546 101.426 94.9063 101.426 101.967C101.426 109.027 102.978 149.218 102.978 149.218L89.3186 150.663L78.2621 94.822L83.3142 51.9998Z" fill="#575A89"/>
<path d="M28.9788 46.0255H25.3565C25.3565 46.0255 15.0069 50.3705 14.4894 55.2586C13.9719 60.1466 -3.8147e-06 109.571 -3.8147e-06 109.571L3.62235 134.554L17.0768 132.382L19.6642 104.682L33.1187 74.2678L28.9788 46.0255Z" fill="#575A89"/>
<path d="M58.3482 24.0484L58.8839 20.129C59.0087 19.2155 59.5182 18.0144 60.365 18.2628C61.0852 18.4741 62.6545 19.1213 62.9172 18.9259C63.9011 18.1944 65.39 19.4735 66.4247 18.8237C66.8582 18.5514 67.1409 17.9681 67.6448 17.9292C67.9828 17.9518 68.3013 18.1033 68.5404 18.355C69.2121 18.968 70.0034 19.4192 70.859 19.677C71.2882 19.7996 71.7408 19.7996 72.17 19.6768C72.5992 19.554 72.9893 19.313 73.2998 18.9787C73.4095 18.8006 73.5573 18.6519 73.7315 18.5444C73.9359 18.4826 74.154 18.4931 74.3521 18.5744L76.9957 19.3298C77.3845 17.8503 77.4643 16.3001 77.2298 14.7852C76.9952 13.2702 76.4518 11.8264 75.6366 10.5522C74.5642 9.02432 73.2641 7.68795 71.7863 6.59449C70.1492 5.28732 68.4597 4.05782 66.7178 2.90601C64.871 1.53464 62.7748 0.577484 60.5599 0.0942591C58.3306 -0.261041 55.8345 0.374624 54.4322 2.22794C53.7727 1.72693 53.2769 1.02403 53.013 0.215644C52.8557 0.365779 52.7318 0.550316 52.65 0.756211C52.5681 0.962107 52.5303 1.18434 52.5393 1.40725C52.5482 1.63015 52.6036 1.84827 52.7017 2.04622C52.7997 2.24417 52.938 2.41713 53.1067 2.55287L50.8709 1.05442C50.2424 1.74704 51.4704 3.00296 50.9349 3.77689C50.7729 3.96831 50.5651 4.11073 50.333 4.18936C49.119 4.68596 48.0064 5.42094 47.0547 6.35493C45.8499 7.79564 44.9677 9.50124 44.4729 11.3465C43.1407 15.358 42.1724 19.9584 44.0653 23.7134C44.2799 24.1391 47.1125 31.1655 47.4899 31.4395C48.7656 32.3657 47.9351 30.1242 48.8492 31.4395C49.5661 32.4709 49.4319 28.5233 50.4972 29.3898C50.9149 29.7034 51.4102 29.8833 51.9233 29.9075C52.4363 29.9317 52.945 29.7993 53.3878 29.5262C53.8295 29.2047 53.6872 27.4195 53.4489 25.7802C53.4033 25.4679 53.4314 25.1487 53.5307 24.8505C53.63 24.5522 53.7975 24.2841 54.0185 24.0697C54.2395 23.8552 54.5072 23.7009 54.7982 23.6203C55.0893 23.5396 55.3947 23.5352 55.6877 23.6073C57.0146 23.9349 58.3255 24.2148 58.3482 24.0484Z" fill="#2F2E41"/>
<path opacity="0.2" d="M84.6082 101.152L90.3001 150.576H86.6779L84.6082 101.152Z" fill="black"/>
<path opacity="0.2" d="M24.5803 82.1428L21.7024 101.152L27.1677 82.1428H25.6151H24.5803Z" fill="black"/>
</g>
<defs>
<clipPath id="clip0">
<rect width="730" height="397" fill="white"/>
</clipPath>
</defs>
</svg>
